<?xml version="1.0" encoding="utf-8"?>
<!-- Generator: Adobe Illustrator 27.3.1, SVG Export Plug-In . SVG Version: 6.00 Build 0)  -->
<svg version="1.1" id="Layer_1" xmlns="http://www.w3.org/2000/svg" xmlns:xlink="http://www.w3.org/1999/xlink" x="0px" y="0px"
	 viewBox="0 0 500 200" style="enable-background:new 0 0 500 200;" xml:space="preserve">
<g>
	<path d="M89.9,76.6c13,0,23.3,10.4,23.3,23.3s-10.4,23.3-23.3,23.3s-23.3-10.4-23.3-23.3C66.6,87.1,77.1,76.6,89.9,76.6z
		 M89.9,59.8c15.9,0,29.7,9.3,36.1,22.6l15-7.3c-9.2-19-28.5-32.1-51.2-32.1C58.4,43.1,33,68.6,33,99.9c0,15.7,6.4,30.1,16.8,40.4
		V99.9C49.8,77.8,67.8,59.8,89.9,59.8z M89.9,140c-8.6,0-16.8-2.8-23.3-7.4v19.4c7.1,3.3,15,5,23.3,5c22.3,0,41.6-13,51-31.6
		l-15-7.4C119.3,131,105.6,140,89.9,140z"/>
	<path d="M206.4,78.5c2.6,1.2,4.5,2.8,5.9,4.8c1.4,2.1,2.1,4.7,2.1,7.4c0,2.8-0.7,5.4-2.1,7.4c-1.4,2.1-3.3,3.8-5.9,4.8
		c-2.6,1.2-5.5,1.7-9,1.7h-6.6v9.9h-10.7v-38h17.3C200.8,76.8,203.8,77.3,206.4,78.5z M201.7,94.9c1-1,1.7-2.2,1.7-4.1
		c0-1.7-0.5-3.1-1.7-4.1c-1-1-2.8-1.4-5-1.4h-6v11.1h6C198.9,96.3,200.7,95.8,201.7,94.9z"/>
	<path d="M242.5,88.2c2.6,2.2,3.8,5.7,3.8,10.2v16.4h-9.7V111c-1.6,2.9-4.3,4.3-8.6,4.3c-2.2,0-4.3-0.3-5.9-1.2
		c-1.7-0.9-2.9-1.9-3.8-3.3c-0.9-1.4-1.2-2.9-1.2-4.7c0-2.8,1-5,3.3-6.6c2.1-1.6,5.4-2.2,9.9-2.2h5.9c-0.2-3.1-2.2-4.7-6.2-4.7
		c-1.4,0-2.8,0.2-4.3,0.7c-1.4,0.5-2.6,1-3.6,1.9l-3.5-7.1c1.6-1,3.6-1.9,5.9-2.6c2.2-0.5,4.7-0.9,7.1-0.9
		C236.1,84.9,239.9,85.9,242.5,88.2z M234,107.9c0.9-0.5,1.6-1.4,1.9-2.6v-2.6h-4.5c-2.9,0-4.5,1-4.5,2.9c0,0.9,0.3,1.6,1,2.2
		c0.7,0.5,1.6,0.9,2.8,0.9C232.1,108.7,233.2,108.4,234,107.9z"/>
	<path d="M283.3,85.2l-12.6,30.6c-1.6,3.6-3.3,6.2-5.4,7.6c-2.1,1.4-4.7,2.2-7.8,2.2c-1.6,0-3.1-0.2-4.7-0.7
		c-1.6-0.5-2.8-1.2-3.8-1.9l3.6-7.3c0.5,0.5,1.2,1,2.1,1.2c0.9,0.3,1.6,0.5,2.4,0.5c1,0,1.7-0.2,2.4-0.5s1.2-1,1.6-1.9l-12.6-29.7
		h10.5l7.3,18l7.3-18L283.3,85.2z"/>
	<path d="M294.5,112.9c-3.1-1.7-5.7-4-7.4-7.1c-1.7-2.9-2.8-6.4-2.8-10.2s0.9-7.3,2.8-10.2c1.7-2.9,4.3-5.4,7.4-7.1
		c3.1-1.7,6.7-2.6,10.7-2.6c3.5,0,6.6,0.7,9.3,1.9c2.8,1.2,5.2,2.9,6.9,5.4l-6.9,6.2c-2.4-2.9-5.5-4.5-9-4.5c-2.1,0-4,0.5-5.5,1.4
		s-2.9,2.2-3.8,3.8c-0.9,1.7-1.4,3.5-1.4,5.7c0,2.1,0.5,4,1.4,5.7s2.1,2.9,3.8,3.8c1.6,0.9,3.5,1.4,5.5,1.4c3.5,0,6.6-1.6,9-4.5
		l6.9,6.2c-1.9,2.2-4.1,4.1-6.9,5.4c-2.8,1.2-5.9,1.9-9.3,1.9C301.2,115.5,297.6,114.6,294.5,112.9z"/>
	<path d="M349.5,88.2c2.6,2.2,3.8,5.7,3.8,10.2v16.4h-9.7V111c-1.6,2.9-4.3,4.3-8.6,4.3c-2.2,0-4.3-0.3-5.9-1.2
		c-1.7-0.9-2.9-1.9-3.8-3.3c-0.9-1.4-1.2-2.9-1.2-4.7c0-2.8,1-5,3.3-6.6c2.1-1.6,5.4-2.2,9.9-2.2h5.9c-0.2-3.1-2.2-4.7-6.2-4.7
		c-1.4,0-2.8,0.2-4.3,0.7c-1.4,0.5-2.6,1-3.6,1.9l-3.5-7.1c1.6-1,3.6-1.9,5.9-2.6c2.2-0.5,4.7-0.9,7.1-0.9
		C343.2,84.9,346.9,85.9,349.5,88.2z M341,107.9c0.9-0.5,1.6-1.4,1.9-2.6v-2.6h-4.5c-2.9,0-4.5,1-4.5,2.9c0,0.9,0.3,1.6,1,2.2
		c0.7,0.5,1.6,0.9,2.8,0.9C339.1,108.7,340.1,108.4,341,107.9z"/>
	<path d="M391.5,74.5v40.3h-9.9v-2.9c-1.9,2.2-4.8,3.5-8.6,3.5c-2.6,0-5.2-0.7-7.3-1.9c-2.2-1.2-4-3.1-5.2-5.4
		c-1.2-2.2-1.9-5-1.9-8.1s0.7-5.7,1.9-7.9c1.2-2.2,3.1-4.1,5.2-5.4c2.2-1.2,4.7-1.9,7.3-1.9c3.5,0,6.2,1,8.1,3.1V74.3h10.4V74.5z
		 M379.7,105.1c1.2-1.2,1.7-2.9,1.7-5.2c0-2.2-0.5-3.8-1.7-5.2c-1.2-1.2-2.6-1.9-4.5-1.9c-1.7,0-3.3,0.7-4.5,1.9
		c-1.2,1.2-1.7,2.9-1.7,5.2c0,2.2,0.5,4,1.7,5.2s2.6,1.9,4.5,1.9C376.9,107,378.5,106.3,379.7,105.1z"/>
	<path d="M429.5,74.5v40.3h-9.9v-2.9c-1.9,2.2-4.8,3.5-8.6,3.5c-2.6,0-5.2-0.7-7.3-1.9c-2.2-1.2-4-3.1-5.2-5.4
		c-1.2-2.2-1.9-5-1.9-8.1s0.7-5.7,1.9-7.9c1.2-2.2,3.1-4.1,5.2-5.4c2.2-1.2,4.7-1.9,7.3-1.9c3.5,0,6.2,1,8.1,3.1V74.3h10.4V74.5z
		 M417.5,105.1c1.2-1.2,1.7-2.9,1.7-5.2c0-2.2-0.5-3.8-1.7-5.2c-1.2-1.2-2.6-1.9-4.5-1.9c-1.7,0-3.3,0.7-4.5,1.9
		c-1.2,1.2-1.7,2.9-1.7,5.2c0,2.2,0.5,4,1.7,5.2c1.2,1.2,2.6,1.9,4.5,1.9C415,107,416.3,106.3,417.5,105.1z"/>
	<path d="M467,85.2l-12.6,30.6c-1.6,3.6-3.3,6.2-5.4,7.6c-2.1,1.4-4.7,2.2-7.8,2.2c-1.6,0-3.1-0.2-4.7-0.7c-1.6-0.5-2.8-1.2-3.8-1.9
		l3.6-7.3c0.5,0.5,1.2,1,2.1,1.2c0.9,0.3,1.6,0.5,2.4,0.5c1,0,1.7-0.2,2.4-0.5s1.2-1,1.6-1.9l-12.6-29.7h10.5l7.3,18l7.3-18
		L467,85.2z"/>
</g>
</svg>
