<?xml version="1.0" encoding="UTF-8"?>
<svg id="Layer_1" xmlns="http://www.w3.org/2000/svg" xmlns:xlink="http://www.w3.org/1999/xlink" version="1.1" viewBox="0 0 500 500">
  <!-- Generator: Adobe Illustrator 29.3.1, SVG Export Plug-In . SVG Version: 2.1.0 Build 151)  -->
  <path d="M262.7,147.4c57,0,102.2,45.6,102.2,102.2s-45.6,102.2-102.2,102.2-102.2-45.6-102.2-102.2c0-56.1,46.1-102.2,102.2-102.2ZM262.7,73.7c69.7,0,130.3,40.8,158.3,99.1l65.8-32C446.5,57.5,361.8,0,262.3,0,124.6.4,13.2,112.3,13.2,249.6s28.1,132,73.7,177.2v-177.2c0-96.9,78.9-175.9,175.9-175.9ZM262.7,425.4c-37.7,0-73.7-12.3-102.2-32.5v85.1c31.1,14.5,65.8,21.9,102.2,21.9,97.8,0,182.5-57,223.7-138.6l-65.8-32.5c-28.9,57-89,96.5-157.9,96.5Z"/>
</svg>